<?xml version="1.0" standalone="no"?>
<!DOCTYPE svg PUBLIC "-//W3C//DTD SVG 20010904//EN"
 "http://www.w3.org/TR/2001/REC-SVG-20010904/DTD/svg10.dtd">
<svg version="1.0" xmlns="http://www.w3.org/2000/svg"
 width="789.000000pt" height="788.000000pt" viewBox="0 0 789.000000 788.000000"
 preserveAspectRatio="xMidYMid meet">

<g transform="translate(0.000000,788.000000) scale(0.100000,-0.100000)"
fill="#000000" stroke="none">
<path d="M3640 7813 c-25 -2 -114 -13 -199 -24 -1427 -185 -2648 -1198 -3095
-2567 -299 -915 -249 -1867 143 -2747 358 -802 1017 -1478 1816 -1861 835
-400 1794 -482 2685 -227 1401 400 2457 1583 2695 3017 39 240 49 364 49 631
0 388 -40 681 -145 1046 -214 752 -667 1428 -1284 1920 -567 451 -1244 726
-1980 804 -128 13 -552 18 -685 8z m705 -178 c1515 -169 2765 -1268 3124
-2745 108 -447 130 -952 61 -1404 -72 -468 -235 -919 -478 -1324 -77 -128
-195 -299 -216 -314 -17 -12 -924 -10 -931 2 -4 6 14 33 40 62 45 50 115 179
115 212 0 10 5 26 10 37 17 31 14 187 -5 259 -54 203 -218 374 -404 419 -20 5
-202 57 -406 116 -203 59 -389 111 -413 117 -24 5 -45 15 -48 21 -6 18 -11
266 -4 276 3 5 160 11 350 13 336 4 346 5 404 28 83 34 174 121 212 202 26 56
29 74 29 163 0 89 -3 106 -27 155 -33 66 -204 277 -240 296 -52 27 -119 -23
-105 -78 4 -13 49 -77 102 -142 107 -132 125 -167 125 -236 0 -96 -85 -204
-180 -230 -26 -7 -263 -10 -704 -8 -652 3 -665 3 -680 23 -13 17 -15 78 -16
408 0 430 -1 424 63 345 62 -77 117 -262 117 -393 0 -38 6 -60 21 -79 l20 -26
405 0 c391 0 405 1 424 20 44 44 33 63 -179 328 -109 137 -212 260 -229 274
-39 33 -84 27 -113 -13 -27 -38 -21 -53 62 -156 42 -52 68 -92 64 -101 -4 -12
-18 -71 -41 -179 -4 -23 -7 -23 -144 -23 l-139 0 -6 48 c-16 133 -60 273 -109
350 -34 55 -117 127 -162 143 -24 9 -78 14 -139 14 -85 -1 -107 -4 -148 -25
-120 -60 -215 -232 -242 -440 -13 -99 2 -90 -150 -90 -90 0 -136 4 -141 11 -7
12 -29 110 -40 179 -5 32 1 42 61 115 36 44 68 91 72 103 12 48 -54 100 -104
81 -11 -4 -77 -77 -145 -161 -333 -410 -326 -399 -291 -446 l20 -27 394 -3
c217 -1 404 0 416 3 35 8 50 51 56 160 5 97 34 212 72 284 18 35 70 91 84 91
8 0 11 -115 11 -395 l0 -395 -24 -15 c-21 -14 -103 -15 -702 -13 -759 3 -703
-2 -781 76 -46 46 -66 94 -66 162 0 90 2 92 263 410 30 36 144 176 254 309
109 133 208 251 220 262 58 55 253 138 401 171 85 19 921 19 1015 0 251 -50
378 -113 474 -232 35 -43 67 -72 83 -76 54 -14 111 44 92 93 -5 14 -34 55 -65
92 -57 70 -153 137 -259 181 -27 12 -59 25 -70 30 -64 28 -193 58 -284 66 -39
4 -74 11 -77 15 -3 5 8 26 25 46 56 70 175 360 210 508 35 151 34 329 -1 434
-33 97 -111 206 -190 266 l-67 50 -1 95 c-1 162 -35 257 -121 334 -69 63 -140
90 -239 90 -98 1 -158 -17 -233 -71 -101 -74 -137 -160 -137 -327 l0 -114 -47
-35 c-110 -81 -188 -189 -223 -308 -40 -133 -20 -362 48 -565 36 -106 133
-315 167 -360 14 -18 25 -37 25 -42 0 -5 -34 -12 -75 -15 -132 -12 -267 -52
-409 -123 -134 -67 -140 -74 -390 -379 -18 -22 -127 -155 -242 -295 -242 -295
-267 -331 -288 -404 -59 -201 57 -407 269 -479 17 -6 182 -13 375 -16 l345 -6
0 -144 0 -144 -466 -132 c-256 -73 -486 -143 -510 -155 -137 -70 -233 -183
-289 -340 -32 -91 -34 -246 -3 -345 26 -81 79 -174 130 -227 27 -28 33 -39 22
-43 -8 -3 -237 -4 -509 -3 l-495 3 -48 65 c-132 176 -307 488 -403 716 -256
612 -339 1271 -243 1939 192 1334 1139 2468 2421 2899 278 94 550 152 818 176
69 5 145 12 170 14 86 8 446 -4 575 -19z m-280 -885 c52 -25 67 -37 99 -84 23
-34 26 -49 26 -119 l0 -79 -27 5 c-118 25 -200 29 -287 14 -49 -9 -93 -14 -98
-11 -16 10 -9 134 11 172 54 105 176 150 276 102z m87 -430 c69 -21 145 -65
196 -113 42 -39 95 -114 90 -128 -2 -5 -54 -11 -118 -13 -135 -3 -182 -16
-295 -82 -249 -144 -288 -157 -407 -130 -40 9 -87 25 -104 35 -30 18 -31 21
-27 73 7 78 55 170 125 238 79 77 169 121 298 144 47 9 179 -4 242 -24z m288
-413 c33 -11 35 -15 38 -63 6 -111 -53 -318 -147 -515 -54 -113 -96 -161 -179
-201 -62 -31 -73 -33 -172 -33 -93 0 -112 3 -162 27 -90 42 -136 97 -200 240
-76 168 -131 338 -115 355 4 3 40 -1 80 -10 155 -37 256 -11 467 117 91 55
118 69 165 84 42 14 183 13 225 -1z m-1311 -1916 c12 -22 5 -31 -26 -31 -26 0
-28 3 -11 30 16 25 25 25 37 1z m1741 0 c14 -28 13 -31 -15 -31 -18 0 -25 5
-25 18 0 35 24 43 40 13z m-843 -583 c36 -22 50 -23 318 -28 l280 -5 5 -189
c5 -187 5 -189 30 -207 14 -10 129 -48 255 -83 127 -36 244 -70 260 -75 17 -5
55 -16 85 -24 95 -27 204 -57 240 -67 178 -48 231 -74 300 -143 239 -241 126
-636 -208 -728 -80 -23 -355 -28 -368 -7 -4 6 -7 95 -6 197 2 196 2 196 52
207 48 11 70 24 82 49 15 34 1 75 -34 94 -25 14 -41 12 -225 -33 -109 -27
-209 -52 -223 -57 -14 -4 -41 -11 -60 -14 -19 -4 -48 -11 -65 -16 -16 -5 -118
-30 -225 -55 -107 -26 -226 -55 -265 -65 l-70 -19 -20 23 c-11 13 -33 40 -50
60 -39 48 -126 94 -200 105 -115 18 -176 3 -299 -72 -49 -30 -94 -53 -100 -50
-6 2 -96 24 -201 49 -104 25 -206 49 -225 54 -19 5 -64 17 -100 26 -36 9 -78
20 -95 25 -16 4 -74 18 -127 31 -92 21 -98 22 -123 5 -39 -25 -52 -60 -34 -92
14 -27 24 -33 97 -55 l42 -12 -2 -196 -3 -196 -140 -3 c-83 -2 -165 2 -200 9
-162 33 -291 141 -345 290 -26 69 -27 204 -3 275 46 136 161 248 290 280 59
15 74 19 173 49 30 9 78 23 105 30 28 7 184 52 348 99 l298 86 470 0 470 0 24
25 c30 29 32 64 6 96 l-19 24 -441 3 -441 3 -2 104 c-1 58 -2 117 -2 133 l-1
27 280 5 c264 5 282 6 320 27 50 27 47 27 92 1z m-909 -1257 c100 -25 182 -50
182 -55 0 -6 -28 -24 -61 -41 -84 -41 -139 -92 -172 -159 l-28 -56 -53 0 c-91
0 -86 -10 -86 179 0 164 3 185 25 179 5 -2 92 -23 193 -47z m1937 -131 l0
-175 -909 -3 c-521 -1 -914 2 -919 7 -16 16 31 47 216 140 100 50 214 112 252
137 39 24 87 49 108 55 93 25 191 -24 233 -115 34 -74 54 -90 104 -83 42 5
544 126 760 182 69 18 132 32 140 31 13 -1 15 -28 15 -176z m1645 -338 c0 -14
-179 -203 -291 -307 -524 -490 -1198 -817 -1906 -925 -222 -34 -382 -43 -642
-37 -335 7 -569 40 -875 123 -467 128 -926 362 -1311 670 -112 90 -485 453
-485 473 0 8 756 11 2755 11 1515 0 2755 -4 2755 -8z"/>
<path d="M5222 4485 c-41 -35 -42 -72 -3 -114 22 -23 38 -31 64 -31 72 0 99
83 44 137 -36 36 -69 38 -105 8z"/>
</g>
</svg>
